<?xml version="1.0" standalone="no"?><!DOCTYPE svg PUBLIC "-//W3C//DTD SVG 1.1//EN" "http://www.w3.org/Graphics/SVG/1.1/DTD/svg11.dtd"><svg t="1512982035693" class="icon" style="" viewBox="0 0 1024 1024" version="1.1" xmlns="http://www.w3.org/2000/svg" p-id="2073" xmlns:xlink="http://www.w3.org/1999/xlink" width="200" height="200"><defs><style type="text/css"></style></defs><path d="M864.256 896H159.744c-52.736 0-96.256-43.008-96.256-96.256V352.256c0-52.736 43.008-96.256 96.256-96.256h124.928l36.864-75.264C337.408 148.992 371.2 128 408.064 128h209.408c36.864 0 68.608 20.992 86.528 52.736L740.864 256h123.392c52.736 0 96.256 43.008 96.256 96.256v448C960 852.992 916.992 896 864.256 896zM159.744 320C142.336 320 128 334.336 128 351.744v448c0 17.408 14.336 31.744 31.744 31.744h704c17.408 0 31.744-14.336 31.744-31.744V352.256c0-17.408-14.336-31.744-31.744-31.744H719.872c-12.8 0-24.064-6.144-28.672-17.408l-46.592-92.672c-4.608-11.264-15.872-17.408-28.672-17.408H408.064c-12.8 0-22.528 6.144-28.672 17.408l-46.592 92.16C328.192 313.856 316.928 320 304.128 320H159.744z" p-id="2074" fill="#ffffff"></path><path d="M512 736.256c-97.792 0-176.128-78.336-176.128-176.128S414.208 384 512 384s176.128 78.336 176.128 176.128S609.792 736.256 512 736.256zM512 448c-62.464 0-112.128 49.664-112.128 112.128S449.536 672.256 512 672.256s112.128-49.664 112.128-112.128S574.464 448 512 448zM787.456 378.88a31.744 31.744 0 1 0 63.488 0 31.744 31.744 0 1 0-63.488 0z" p-id="2075" fill="#ffffff"></path></svg>